/* XPM */
static char * close_pressed_xpm[] = {
"24 26 61 1",
" 	c None",
".	c #3D3E41",
"+	c #3D3D40",
"@	c #3C3D40",
"#	c #3C3C3F",
"$	c #3B3C3F",
"%	c #483A3F",
"&	c #8A3139",
"*	c #B82B37",
"=	c #CF2836",
"-	c #B72C37",
";	c #8A313A",
">	c #6E353C",
",	c #CD2835",
"'	c #D52735",
")	c #6E353B",
"!	c #3B3B3E",
"~	c #6E343B",
"{	c #D42735",
"]	c #3A3B3E",
"^	c #47393E",
"/	c #CF2634",
"(	c #D22734",
"_	c #CC2835",
":	c #47393D",
"<	c #3A3A3D",
"[	c #8A3039",
"}	c #D02634",
"|	c #72151C",
"1	c #7D171F",
"2	c #CC2533",
"3	c #893139",
"4	c #B92B36",
"5	c #6A131A",
"6	c #7C171F",
"7	c #B72B37",
"8	c #CE2836",
"9	c #7B161F",
"0	c #CB2533",
"a	c #393A3D",
"b	c #CA2532",
"c	c #39393C",
"d	c #B82B36",
"e	c #38393C",
"f	c #893038",
"g	c #883039",
"h	c #45373C",
"i	c #CB2836",
"j	c #45383B",
"k	c #38383B",
"l	c #6C3339",
"m	c #6A3339",
"n	c #CB2835",
"o	c #45363A",
"p	c #882F38",
"q	c #B62A37",
"r	c #883038",
"s	c #45373A",
"t	c #37373A",
"u	c #37383B",
"v	c #36373A",
"........................",
"++++++++++++++++++++++++",
"++++++++++++++++++++++++",
"++++++++++++++++++++++++",
"@@@@@@@@@@@@@@@@@@@@@@@@",
"@@@##################@@@",
"$$$$$$$$$$$$$$$$$$$$$$$$",
"$$$$$$$$%&*==-;%$$$$$$$$",
"$$$$$$$>,'''''',)$$$$$$$",
"!!!!!!~{''''''''{)!!!!!!",
"!!!]]^,''/(''(/''_:]]!!!",
"<<<]][''}|1221|}''3]]<<<",
"<<<<<4''(156651(''7<<<<<",
"<<<<<8'''215590''',<<<<<",
"aaaaa,'''21559b'''_aaaaa",
"aaaccd''(156651(''7ccaaa",
"eeeccf''}|1221|}''gcceee",
"eeeeeh,''}(''(}''ijeeeee",
"kkkkkkl{''''''''{mkkkkkk",
"kkkkkkkl_''''''nmkkkkkkk",
"kkkkkkkkopq88qrskkkkkkkk",
"tttuuuuuuuuuuuuuuuuuuttt",
"tttttttttttttttttttttttt",
"vvvttttttttttttttttttvvv",
"vvvvvvvvvvvvvvvvvvvvvvvv",
"vvvvvvvvvvvvvvvvvvvvvvvv"};
