/* XPM */
static char * hide_inactive_xpm[] = {
"24 26 30 1",
" 	c None",
".	c #3F4043",
"+	c #3E3F42",
"@	c #3D3E41",
"#	c #404143",
"$	c #494B4D",
"%	c #4E4F53",
"&	c #505254",
"*	c #4E5053",
"=	c #484A4E",
"-	c #3F4144",
";	c #444649",
">	c #505154",
",	c #505255",
"'	c #515255",
")	c #454649",
"!	c #45474A",
"~	c #4F5154",
"{	c #505153",
"]	c #47494C",
"^	c #48494C",
"/	c #4D5053",
"(	c #3C3D40",
"_	c #47484C",
":	c #3E4042",
"<	c #444648",
"[	c #4F5254",
"}	c #444548",
"|	c #3E3F43",
"1	c #3B3C3F",
"........................",
"........................",
"........................",
"++++++++++++++++++++++++",
"++++++++++++++++++++++++",
"++++++++++++++++++++++++",
"++++++++++++++++++++++++",
"@@@@@@@@#$%&&*=-@@@@@@@@",
"@@@@@@@;>,'''',>)@@@@@@@",
"@@@@@@!~''''''''>;@@@@@@",
"@@@@@.{''''''''''{.@@@@@",
"@@@@@],''''''''''&^@@@@@",
"@@@@@%''''''''''''/@@@@@",
"@@@@@&'''''''''''',@@@@@",
"@@@@@,'''''''''''',@@@@@",
"(((((%''''''''''''/(((((",
"(((((]&'''''''''',_(((((",
"(((((:{''''''''''{+(((((",
"((((((<[''''''''[}((((((",
"(((((((;>,'''',{<(((((((",
"((((((((|^%&&%_+((((((((",
"((((((((((((((((((((((((",
"((((((((((((((((((((((((",
"111111111111111111111111",
"111111111111111111111111",
"111111111111111111111111"};
