/* XPM */
static char * hide_active_xpm[] = {
"24 26 39 1",
" 	c None",
".	c #3F4043",
"+	c #3E3F42",
"@	c #3D3E41",
"#	c #4B473C",
"$	c #937428",
"%	c #CF9D22",
"&	c #E5AC22",
"*	c #E4AC22",
"=	c #CE9D23",
"-	c #927328",
";	c #725F30",
">	c #E5AD22",
",	c #F8C334",
"'	c #FAC536",
")	c #E4AD22",
"!	c #725E30",
"~	c #EEB729",
"{	c #4A463D",
"]	c #F8C333",
"^	c #917229",
"/	c #CF9D21",
"(	c #CE9D22",
"_	c #E5AE23",
":	c #3C3D40",
"<	c #CF9C22",
"[	c #CE9C22",
"}	c #927228",
"|	c #F7C233",
"1	c #907129",
"2	c #4A463B",
"3	c #E3AC22",
"4	c #48443C",
"5	c #715E30",
"6	c #EEB628",
"7	c #6F5D30",
"8	c #49453C",
"9	c #907228",
"0	c #3B3C3F",
"........................",
"........................",
"........................",
"++++++++++++++++++++++++",
"++++++++++++++++++++++++",
"++++++++++++++++++++++++",
"++++++++++++++++++++++++",
"@@@@@@@@#$%&*=-#@@@@@@@@",
"@@@@@@@;>,'''',)!@@@@@@@",
"@@@@@@;~''''''''~!@@@@@@",
"@@@@@#>''''''''''){@@@@@",
"@@@@@$,'''''''''']^@@@@@",
"@@@@@/''''''''''''(@@@@@",
"@@@@@_'''''''''''')@@@@@",
"@@@@@>''''''''''''*@@@@@",
":::::<''''''''''''[:::::",
":::::},''''''''''|1:::::",
":::::2)''''''''''34:::::",
"::::::5~''''''''67::::::",
":::::::5*]''''|37:::::::",
"::::::::89[>>[14::::::::",
"::::::::::::::::::::::::",
"::::::::::::::::::::::::",
"000000000000000000000000",
"000000000000000000000000",
"000000000000000000000000"};
