/* XPM */
static char * shade_prelight_xpm[] = {
"24 26 47 1",
" 	c None",
".	c #3F4043",
"+	c #3E3F42",
"@	c #3D3E41",
"#	c #A5A5A5",
"$	c #3C3D40",
"%	c #3D3D40",
"&	c #9B9C9C",
"*	c #9C9C9B",
"=	c #9B9B9B",
"-	c #939292",
";	c #929292",
">	c #919192",
",	c #919291",
"'	c #919191",
")	c #888889",
"!	c #898888",
"~	c #888888",
"{	c #878888",
"]	c #878787",
"^	c #3C3C40",
"/	c #3C3C3F",
"(	c #3B3C3F",
"_	c #747474",
":	c #747374",
"<	c #737473",
"[	c #737373",
"}	c #727373",
"|	c #3B3B3E",
"1	c #3B3B3F",
"2	c #6A6A6A",
"3	c #696A6A",
"4	c #6A6969",
"5	c #69696A",
"6	c #696A69",
"7	c #696969",
"8	c #696869",
"9	c #3A3B3E",
"0	c #3A3A3E",
"a	c #3A3A3D",
"b	c #3A3B3D",
"c	c #3A3A3C",
"d	c #3A393D",
"e	c #393A3C",
"f	c #393A3D",
"g	c #39393C",
"h	c #3A393C",
"........................",
"........................",
"........................",
"........................",
"++++++++++++++++++++++++",
"++++++++++++++++++++++++",
"++++++++++++++++++++++++",
"++++++++++++++++++++++++",
"@@@@@@@@@@@@@@@@@@@@@@@@",
"@@@@@@@@@@@@@@@@@@@@@@@@",
"@@@@@@@@@@@##@@@@@@@@@@@",
"$$$%%$$$%%&**=%$$$%%%$$$",
"$$$$$$$$$-;>,,'$$$$$$$$$",
"$$$$$$$$)!~{]]]]$$$$$$$$",
"^^$/^^^$/^^^$/^^^$/^^^^$",
"(/(//(/(__:_<<[}/(///(/(",
"|11|||112234567811||||11",
"||9||||9||||9||||9|||||9",
"||9||||9||||9||||9|||||9",
"0a99b0a99b0a99b0a99bb0a9",
"90a0090a0090a0090a00090a",
"aa0aaaa0aaaa0aaaa0aaaaa0",
"aaaaaaaaaaaaaaaaaaaaaaaa",
"acdacacdacacdacacdaccacd",
"eddfgeddfgeddfgeddfggedd",
"hcheehcheehcheehcheeehch"};
