/* XPM */
static char * close_active_xpm[] = {
"24 26 34 1",
" 	c None",
".	c #3F4043",
"+	c #3E3F42",
"@	c #3D3E41",
"#	c #4A3C40",
"$	c #8F333B",
"%	c #CA3640",
"&	c #DE3944",
"*	c #C93641",
"=	c #8E333B",
"-	c #70363D",
";	c #DE3A44",
">	c #F04D54",
",	c #F25056",
"'	c #DD3A44",
")	c #70363C",
"!	c #E8414A",
"~	c #E7414A",
"{	c #F04E54",
"]	c #8F333C",
"^	c #C83840",
"/	c #DF3A45",
"(	c #3C3D40",
"_	c #CA3641",
":	c #C83740",
"<	c #8E323B",
"[	c #8E333C",
"}	c #493B3F",
"|	c #DC3A43",
"1	c #483B3F",
"2	c #6F363C",
"3	c #6D363C",
"4	c #C83641",
"5	c #3B3C3F",
"........................",
"........................",
"........................",
"++++++++++++++++++++++++",
"++++++++++++++++++++++++",
"++++++++++++++++++++++++",
"++++++++++++++++++++++++",
"@@@@@@@@#$%&&*=#@@@@@@@@",
"@@@@@@@-;>,,,,>')@@@@@@@",
"@@@@@@-!,,,,,,,,~)@@@@@@",
"@@@@@#;,,,,,,,,,,'#@@@@@",
"@@@@@$>,,,,,,,,,,{]@@@@@",
"@@@@@%,,,,,,,,,,,,^@@@@@",
"@@@@@/,,,,,,,,,,,,;@@@@@",
"@@@@@;,,,,,,,,,,,,'@@@@@",
"(((((_,,,,,,,,,,,,:(((((",
"(((((<>,,,,,,,,,,>[(((((",
"(((((}',,,,,,,,,,|1(((((",
"((((((2~,,,,,,,,~3((((((",
"(((((((2'{,,,,>|3(((((((",
"((((((((}=4;;4[1((((((((",
"((((((((((((((((((((((((",
"((((((((((((((((((((((((",
"555555555555555555555555",
"555555555555555555555555",
"555555555555555555555555"};
