/* XPM */
static char * hide_prelight_xpm[] = {
"24 26 43 1",
" 	c None",
".	c #3F4043",
"+	c #3E3F42",
"@	c #3D3E41",
"#	c #4B473C",
"$	c #937428",
"%	c #CF9D22",
"&	c #E5AC22",
"*	c #E4AC22",
"=	c #CE9D23",
"-	c #927328",
";	c #725F30",
">	c #E5AD22",
",	c #F8C334",
"'	c #FAC536",
")	c #E4AD22",
"!	c #725E30",
"~	c #EEB729",
"{	c #4A463D",
"]	c #F8C333",
"^	c #917229",
"/	c #CF9D21",
"(	c #CE9D22",
"_	c #E5AE23",
":	c #997921",
"<	c #7D621B",
"[	c #9A7921",
"}	c #9B7A21",
"|	c #3C3D40",
"1	c #CF9C22",
"2	c #CE9C22",
"3	c #927228",
"4	c #F7C233",
"5	c #907129",
"6	c #4A463B",
"7	c #E3AC22",
"8	c #48443C",
"9	c #715E30",
"0	c #EEB628",
"a	c #6F5D30",
"b	c #49453C",
"c	c #907228",
"d	c #3B3C3F",
"........................",
"........................",
"........................",
"++++++++++++++++++++++++",
"++++++++++++++++++++++++",
"++++++++++++++++++++++++",
"++++++++++++++++++++++++",
"@@@@@@@@#$%&*=-#@@@@@@@@",
"@@@@@@@;>,'''',)!@@@@@@@",
"@@@@@@;~''''''''~!@@@@@@",
"@@@@@#>''''''''''){@@@@@",
"@@@@@$,'''''''''']^@@@@@",
"@@@@@/''''''''''''(@@@@@",
"@@@@@_'':<<<<<<['')@@@@@",
"@@@@@>''[<<<<<<}''*@@@@@",
"|||||1''''''''''''2|||||",
"|||||3,''''''''''45|||||",
"|||||6)''''''''''78|||||",
"||||||9~''''''''0a||||||",
"|||||||9*]''''47a|||||||",
"||||||||bc2>>258||||||||",
"||||||||||||||||||||||||",
"||||||||||||||||||||||||",
"dddddddddddddddddddddddd",
"dddddddddddddddddddddddd",
"dddddddddddddddddddddddd"};
