/* XPM */
static char * hide_pressed_xpm[] = {
"24 26 52 1",
" 	c None",
".	c #3D3E41",
"+	c #3D3D40",
"@	c #3C3D40",
"#	c #3C3C3F",
"$	c #3B3C3F",
"%	c #49453B",
"&	c #8D6F26",
"*	c #BC8B19",
"=	c #D49A12",
"-	c #BB8C19",
";	c #8D6E27",
">	c #705D2F",
",	c #D29912",
"'	c #DA9E10",
")	c #705C2F",
"!	c #3B3B3E",
"~	c #705C2E",
"{	c #D99D10",
"]	c #3A3B3E",
"^	c #48443A",
"/	c #D19812",
"(	c #47433A",
"_	c #3A3A3D",
":	c #8D6E26",
"<	c #8B6E26",
"[	c #BD8C18",
"}	c #BB8B19",
"|	c #D39A12",
"1	c #85610A",
"2	c #6D4F08",
"3	c #86610A",
"4	c #393A3D",
"5	c #87620A",
"6	c #39393C",
"7	c #BC8B18",
"8	c #38393C",
"9	c #8C6D25",
"0	c #8A6C26",
"a	c #464238",
"b	c #D09813",
"c	c #454138",
"d	c #38383B",
"e	c #6E5A2D",
"f	c #6C592D",
"g	c #D09812",
"h	c #454037",
"i	c #8A6C25",
"j	c #BA8A19",
"k	c #37373A",
"l	c #37383B",
"m	c #36373A",
"........................",
"++++++++++++++++++++++++",
"++++++++++++++++++++++++",
"++++++++++++++++++++++++",
"@@@@@@@@@@@@@@@@@@@@@@@@",
"@@@##################@@@",
"$$$$$$$$$$$$$$$$$$$$$$$$",
"$$$$$$$$%&*==-;%$$$$$$$$",
"$$$$$$$>,'''''',)$$$$$$$",
"!!!!!!~{''''''''{)!!!!!!",
"!!!]]^,''''''''''/(]]!!!",
"___]]:''''''''''''<]]___",
"_____[''''''''''''}_____",
"_____|''12222223'',_____",
"44444,''32222225''/44444",
"444667''''''''''''}66444",
"888669''''''''''''066888",
"88888a,''''''''''bc88888",
"dddddde{''''''''{fdddddd",
"ddddddde/''''''gfddddddd",
"ddddddddhij||jihdddddddd",
"kkkllllllllllllllllllkkk",
"kkkkkkkkkkkkkkkkkkkkkkkk",
"mmmkkkkkkkkkkkkkkkkkkmmm",
"mmmmmmmmmmmmmmmmmmmmmmmm",
"mmmmmmmmmmmmmmmmmmmmmmmm"};
