/* XPM */
static char * maximize_pressed_xpm[] = {
"24 26 53 1",
" 	c None",
".	c #3D3E41",
"+	c #3D3D40",
"@	c #3C3D40",
"#	c #3C3C3F",
"$	c #3B3C3F",
"%	c #38483D",
"&	c #26812E",
"*	c #1AA824",
"=	c #15BC20",
"-	c #27802E",
";	c #2D6834",
">	c #15BA1F",
",	c #13C11E",
"'	c #2E6834",
")	c #3B3B3E",
"!	c #2D6733",
"~	c #13C01E",
"{	c #3A3B3E",
"]	c #37473C",
"^	c #15B91F",
"/	c #37463B",
"(	c #26802E",
"_	c #11B01B",
":	c #0A6810",
"<	c #09600F",
"[	c #0D8114",
"}	c #267F2D",
"|	c #3A3A3D",
"1	c #1AA823",
"2	c #1AA724",
"3	c #15BB20",
"4	c #12B21C",
"5	c #0A6A10",
"6	c #393A3D",
"7	c #39393C",
"8	c #267F2C",
"9	c #267E2D",
"0	c #38393C",
"a	c #35453A",
"b	c #15B920",
"c	c #354439",
"d	c #38383B",
"e	c #2C6632",
"f	c #2C6432",
"g	c #354338",
"h	c #257D2C",
"i	c #1AA624",
"j	c #267E2C",
"k	c #37383B",
"l	c #37373A",
"m	c #36373A",
"n	c #363639",
"........................",
"........................",
"++++++++++++++++++++++++",
"@@@@@@@@@@@@@@@@@@@@@@@@",
"@@@@@@@@@@@@@@@@@@@@@@@@",
"########################",
"$$$$$$$$$$$$$$$$$$$$$$$$",
"$$$$$$$$%&*==*-%$$$$$$$$",
"$$$$$$$;>,,,,,,>'$$$$$$$",
"))))))!~,,,,,,,,~'))))))",
"{{{{{]>,,,,,,,,,,^/{{{{{",
"{{{{{(,,,,_:<<[,,,}{{{{{",
"|||||1,,,_,_:<<,,,2|||||",
"|||||3,,,:_,45<,,,>|||||",
"66666>,,,<:_,45,,,^66666",
"777771,,,<<:_,_,,,277777",
"777778,,,[<<:_,,,,977777",
"00000a>,,,,,,,,,,bc00000",
"dddddde~,,,,,,,,~fdddddd",
"ddddddde^,,,,,,^fddddddd",
"ddddddddghi33ijgdddddddd",
"kkkkkkkkkkkkkkkkkkkkkkkk",
"llllllllllllllllllllllll",
"llllllllllllllllllllllll",
"mmmmmmmmmmmmmmmmmmmmmmmm",
"nnnnnnnnnnnnnnnnnnnnnnnn"};
