/* XPM */
static char * stick_pressed_xpm[] = {
"24 26 45 1",
" 	c None",
".	c #3F4043",
"+	c #3E3F42",
"@	c #3D3E41",
"#	c #3C3D40",
"$	c #3D3D40",
"%	c #606061",
"&	c #999898",
"*	c #989899",
"=	c #59595A",
"-	c #999999",
";	c #838384",
">	c #8D8D8D",
",	c #8E8D8D",
"'	c #8D8E8D",
")	c #838483",
"!	c #3C3C40",
"~	c #3C3C3F",
"{	c #797979",
"]	c #828282",
"^	c #828182",
"/	c #818282",
"(	c #787979",
"_	c #3B3C3F",
":	c #454646",
"<	c #767776",
"[	c #767676",
"}	c #777677",
"|	c #454546",
"1	c #3B3B3E",
"2	c #3B3B3F",
"3	c #3E3E3F",
"4	c #646464",
"5	c #646364",
"6	c #3F3F3F",
"7	c #3A3B3E",
"8	c #3A3A3E",
"9	c #3A3A3D",
"0	c #3A3B3D",
"a	c #3A3A3C",
"b	c #3A393D",
"c	c #393A3C",
"d	c #393A3D",
"e	c #39393C",
"f	c #3A393C",
"........................",
"........................",
"........................",
"........................",
"++++++++++++++++++++++++",
"++++++++++++++++++++++++",
"++++++++++++++++++++++++",
"++++++++++++++++++++++++",
"@@@@@@@@@@@@@@@@@@@@@@@@",
"@@@@@@@@@@@@@@@@@@@@@@@@",
"@@@@@@@@@@@@@@@@@@@@@@@@",
"###$$###$$%&*%$###$$$###",
"#########=----=#########",
"#########;>>,')#########",
"!!#~!!!#~{]^/](!!#~!!!!#",
"_~_~~_~_~:<[[}|_~_~~~_~_",
"122111221134561122111122",
"117111171111711117111117",
"117111171111711117111117",
"897708977089770897700897",
"789887898878988789888789",
"998999989999899998999998",
"999999999999999999999999",
"9ab9a9ab9a9ab9a9ab9aa9ab",
"cbbdecbbdecbbdecbbdeecbb",
"fafccfafccfafccfafcccfaf"};
