/* XPM */
static char * title_3_active_xpm[] = {
"26 26 21 1",
" 	c None",
".	c #3F4043",
"+	c #3E3F42",
"@	c #3D3E41",
"#	c #3D3D40",
"$	c #3C3D40",
"%	c #3C3C40",
"&	c #3C3C3F",
"*	c #3B3C3F",
"=	c #3B3B3E",
"-	c #3B3B3F",
";	c #3A3B3E",
">	c #3A3B3D",
",	c #3A3A3E",
"'	c #3A3A3D",
")	c #3A3A3C",
"!	c #3A393D",
"~	c #39393C",
"{	c #393A3C",
"]	c #393A3D",
"^	c #3A393C",
"..........................",
"..........................",
"..........................",
"..........................",
"++++++++++++++++++++++++++",
"++++++++++++++++++++++++++",
"++++++++++++++++++++++++++",
"++++++++++++++++++++++++++",
"@@@@@@@@@@@@@@@@@@@@@@@@@@",
"@@@@@@@@@@@@@@@@@@@@@@@@@@",
"@@@@@@@@@@@@@@@@@@@@@@@@@@",
"#$$$##$$$##$$$##$$$###$$$#",
"$$$$$$$$$$$$$$$$$$$$$$$$$$",
"$$$$$$$$$$$$$$$$$$$$$$$$$$",
"%%%$&%%%$&%%%$&%%%$&%%%%$&",
"&*&*&&*&*&&*&*&&*&*&&&*&*&",
"==--===--===--===--====--=",
"===;====;====;====;=====;=",
"===;====;====;====;=====;=",
">,';;>,';;>,';;>,';;>>,';;",
",;,',,;,',,;,',,;,',,,;,',",
"''','''','''','''',''''','",
"''''''''''''''''''''''''''",
")')!')')!')')!')')!'))')!'",
"~{!!]~{!!]~{!!]~{!!]~~{!!]",
"{^)^{{^)^{{^)^{{^)^{{{^)^{"};
