<?xml version="1.0" encoding="UTF-8" standalone="no"?>
<!-- Created with Inkscape (http://www.inkscape.org/) -->

<svg
   xmlns:dc="http://purl.org/dc/elements/1.1/"
   xmlns:cc="http://creativecommons.org/ns#"
   xmlns:rdf="http://www.w3.org/1999/02/22-rdf-syntax-ns#"
   xmlns:svg="http://www.w3.org/2000/svg"
   xmlns="http://www.w3.org/2000/svg"
   xmlns:sodipodi="http://sodipodi.sourceforge.net/DTD/sodipodi-0.dtd"
   xmlns:inkscape="http://www.inkscape.org/namespaces/inkscape"
   height="40"
   width="40"
   version="1.1"
   viewBox="0 0 10.583333 10.583334"
   id="svg30"
   sodipodi:docname="checkbox-checked-selectionmode-dark.svg"
   inkscape:version="0.92.1 r15371">
  <sodipodi:namedview
     pagecolor="#ffffff"
     bordercolor="#666666"
     borderopacity="1"
     objecttolerance="10"
     gridtolerance="10"
     guidetolerance="10"
     inkscape:pageopacity="0"
     inkscape:pageshadow="2"
     inkscape:window-width="824"
     inkscape:window-height="820"
     id="namedview32"
     showgrid="false"
     inkscape:zoom="5.9"
     inkscape:cx="-12.372881"
     inkscape:cy="20"
     inkscape:window-x="0"
     inkscape:window-y="31"
     inkscape:window-maximized="0"
     inkscape:current-layer="svg30" />
  <defs
     id="defs12">
    <linearGradient
       id="linearGradient3856-64-5"
       y2="503.7"
       gradientUnits="userSpaceOnUse"
       y1="514.24"
       gradientTransform="matrix(0.635,0,0,0.635,-248.73,-316.532)"
       x2="398.38"
       x1="404">
      <stop
         stop-color="#1754da"
         offset="0"
         id="stop2" />
      <stop
         stop-color="#144cc6"
         offset="1"
         id="stop4" />
    </linearGradient>
    <linearGradient
       id="linearGradient3853-04-0"
       y2="502.85"
       gradientUnits="userSpaceOnUse"
       y1="507.86"
       gradientTransform="matrix(0.65942,0,0,0.65942,-258.5,-328.911)"
       x2="396.62"
       x1="402.25">
      <stop
         stop-color="#1859e7"
         offset="0"
         id="stop7" />
      <stop
         stop-color="#154ecb"
         offset="1"
         id="stop9" />
    </linearGradient>
  </defs>
  <metadata
     id="metadata14">
    <rdf:RDF>
      <cc:Work
         rdf:about="">
        <dc:format>image/svg+xml</dc:format>
        <dc:type
           rdf:resource="http://purl.org/dc/dcmitype/StillImage" />
        <dc:title></dc:title>
      </cc:Work>
    </rdf:RDF>
  </metadata>
  <rect
     style="fill:none"
     id="rect16"
     x="2e-07"
     y="1.3427734e-05"
     width="10.583"
     height="10.583"
     ry="0"
     rx="0" />
  <rect
     rx="1.9447"
     ry="1.9447"
     height="9.5249996"
     width="9.5249996"
     y="0.56001097"
     x="0.50603002"
     id="rect18"
     style="fill:#1d60c4;fill-opacity:1" />
  <rect
     rx="1.7502"
     ry="1.7502"
     height="8.5725002"
     width="8.5725002"
     y="1.0399915"
     x="0.98228002"
     id="rect20"
     style="fill:#0086f5;fill-opacity:1" />
  <path
     d="M 7.4084,3.15 C 7.24928,3.1798 7.09081,3.28308 6.99168,3.42781 l -2.5599,3.74 -0.9723,-0.97 c -0.24809,-0.24809 -0.64488,-0.24809 -0.89297,0 -0.24809,0.24809 -0.24809,0.64488 0,0.89297 l 1.4089,1.4089 0.099218,0.0992 c 0.026734,0.0264 0.047181,0.0573 0.079376,0.0794 0.024828,0.017 0.053212,0.0267 0.079375,0.0397 0.032448,0.016 0.065062,0.0296 0.099219,0.0397 0.019304,0.006 0.040005,0.0159 0.059499,0.0198 0.012508,0.003 0.027051,-0.002 0.039688,0 0.053594,0.007 0.10514,0.007 0.15875,0 0.053594,-0.007 0.10794,-0.019 0.15875,-0.0397 0.079751,-0.0316 0.15553,-0.0754 0.21828,-0.13891 0.026415,-0.0267 0.057341,-0.0472 0.079375,-0.0794 l 2.9964,-4.3855 C 8.2416,3.84451 8.17405,3.43927 7.88459,3.241 7.73986,3.1419 7.56746,3.11203 7.40834,3.1418 Z"
     id="path22"
     inkscape:connector-curvature="0"
     style="opacity:0.704" />
  <path
     d="M 7.4084,2.51 C 7.24928,2.5398 7.09081,2.64309 6.99168,2.78782 l -2.5599,3.75 -0.9723,-0.97 c -0.24809,-0.24809 -0.64488,-0.24809 -0.89297,0 -0.24809,0.24809 -0.24809,0.64488 0,0.89297 l 1.4089,1.4089 0.099218,0.0992 c 0.026734,0.0264 0.047181,0.0573 0.079376,0.0794 0.024828,0.017 0.053212,0.0267 0.079375,0.0397 0.032448,0.016 0.065062,0.0296 0.099219,0.0397 0.019304,0.006 0.040005,0.0159 0.059499,0.0198 0.012508,0.003 0.027051,-0.002 0.039688,0 0.053594,0.007 0.10514,0.007 0.15875,0 0.053594,-0.007 0.10794,-0.019 0.15875,-0.0397 0.079751,-0.0316 0.15553,-0.0754 0.21828,-0.13891 0.026415,-0.0267 0.057341,-0.0472 0.079375,-0.0794 l 2.9964,-4.3855 C 8.2416,3.21452 8.17405,2.80928 7.88459,2.61101 7.73986,2.51191 7.56746,2.48203 7.40834,2.51181 Z"
     id="path24"
     inkscape:connector-curvature="0"
     style="fill:#e9f1fc;fill-opacity:1" />
</svg>
