<?xml version="1.0" encoding="UTF-8" standalone="no"?>
<svg
   xmlns:dc="http://purl.org/dc/elements/1.1/"
   xmlns:cc="http://creativecommons.org/ns#"
   xmlns:rdf="http://www.w3.org/1999/02/22-rdf-syntax-ns#"
   xmlns:svg="http://www.w3.org/2000/svg"
   xmlns="http://www.w3.org/2000/svg"
   xmlns:sodipodi="http://sodipodi.sourceforge.net/DTD/sodipodi-0.dtd"
   xmlns:inkscape="http://www.inkscape.org/namespaces/inkscape"
   width="28"
   height="28"
   version="1.1"
   style="enable-background:new"
   id="svg8"
   sodipodi:docname="titlebutton-maximize-backdrop@2 .svg"
   inkscape:version="0.92.2 2405546, 2018-03-11">
  <metadata
     id="metadata14">
    <rdf:RDF>
      <cc:Work
         rdf:about="">
        <dc:format>image/svg+xml</dc:format>
        <dc:type
           rdf:resource="http://purl.org/dc/dcmitype/StillImage" />
        <dc:title></dc:title>
      </cc:Work>
    </rdf:RDF>
  </metadata>
  <defs
     id="defs12" />
  <sodipodi:namedview
     pagecolor="#ffffff"
     bordercolor="#666666"
     borderopacity="1"
     objecttolerance="10"
     gridtolerance="10"
     guidetolerance="10"
     inkscape:pageopacity="0"
     inkscape:pageshadow="2"
     inkscape:window-width="1920"
     inkscape:window-height="1021"
     id="namedview10"
     showgrid="false"
     inkscape:zoom="9.8333333"
     inkscape:cx="-24.711864"
     inkscape:cy="11.79661"
     inkscape:window-x="1366"
     inkscape:window-y="30"
     inkscape:window-maximized="1"
     inkscape:current-layer="svg8" />
  <path
     inkscape:connector-curvature="0"
     id="path2"
     d="m 14.000122,27.999995 c 7.731858,0 13.999877,-6.267999 13.999877,-13.999999 C 27.999999,6.2679964 21.73198,-3.3362198e-6 14.000122,-3.3362198e-6 6.2680371,-3.3362198e-6 -3.9999994e-7,6.2679964 -3.9999994e-7,13.999996 -3.9999994e-7,21.731996 6.2680371,27.999995 14.000122,27.999995"
     style="fill:#4f5053;fill-opacity:1;fill-rule:evenodd;stroke:none;stroke-width:1.99999988" />
  <path
     inkscape:connector-curvature="0"
     id="path4"
     d="m 14.000134,27.000195 c 7.179562,0 12.999865,-5.820599 12.999865,-13.000199 0,-7.1797997 -5.820303,-12.99999939 -12.999865,-12.99999939 -7.1798267,0 -13.00013445,5.82019969 -13.00013445,12.99999939 0,7.1796 5.82030775,13.000199 13.00013445,13.000199"
     style="opacity:1;fill:#4f5053;fill-opacity:1;fill-rule:evenodd;stroke:none;stroke-width:1.99999988" />
</svg>
