<?xml version="1.0" encoding="UTF-8" standalone="no"?>
<svg
   xmlns:dc="http://purl.org/dc/elements/1.1/"
   xmlns:cc="http://creativecommons.org/ns#"
   xmlns:rdf="http://www.w3.org/1999/02/22-rdf-syntax-ns#"
   xmlns:svg="http://www.w3.org/2000/svg"
   xmlns="http://www.w3.org/2000/svg"
   xmlns:sodipodi="http://sodipodi.sourceforge.net/DTD/sodipodi-0.dtd"
   xmlns:inkscape="http://www.inkscape.org/namespaces/inkscape"
   width="32"
   height="32"
   version="1.1"
   style="enable-background:new"
   id="svg8"
   sodipodi:docname="titlebutton-restore-hover@2.svg"
   inkscape:version="0.92.4 5da689c313, 2019-01-14">
  <metadata
     id="metadata14">
    <rdf:RDF>
      <cc:Work
         rdf:about="">
        <dc:format>image/svg+xml</dc:format>
        <dc:type
           rdf:resource="http://purl.org/dc/dcmitype/StillImage" />
        <dc:title></dc:title>
      </cc:Work>
    </rdf:RDF>
  </metadata>
  <defs
     id="defs12" />
  <sodipodi:namedview
     pagecolor="#ffffff"
     bordercolor="#666666"
     borderopacity="1"
     objecttolerance="10"
     gridtolerance="10"
     guidetolerance="10"
     inkscape:pageopacity="0"
     inkscape:pageshadow="2"
     inkscape:window-width="1920"
     inkscape:window-height="1011"
     id="namedview10"
     showgrid="false"
     inkscape:zoom="9.8333333"
     inkscape:cx="-15.65474"
     inkscape:cy="11.288136"
     inkscape:window-x="0"
     inkscape:window-y="0"
     inkscape:window-maximized="1"
     inkscape:current-layer="svg8" />
  <g
     id="g817"
     transform="matrix(2,0,0,2,0,-32)">
    <path
       style="fill:#333333;fill-opacity:1;fill-rule:evenodd;stroke:none;stroke-width:1.14285707"
       d="M 8.0000702,32 C 12.418274,32 16,28.418286 16,24 16,19.581714 12.418274,16 8.0000702,16 3.5817358,16 0,19.581714 0,24 c 0,4.418286 3.5817358,8 8.0000702,8"
       id="path2"
       inkscape:connector-curvature="0" />
    <path
       style="opacity:1;fill:#666666;fill-opacity:1;fill-rule:evenodd;stroke:none;stroke-width:1.11112607"
       d="m 8.0000702,31.428571 c 4.1026068,0 7.4284938,-3.143927 7.4284938,-7.021902 0,-3.878083 -3.325887,-7.021795 -7.4284938,-7.021795 -4.1027583,0 -7.42864855,3.143711 -7.42864855,7.021795 0,3.877975 3.32589025,7.021902 7.42864855,7.021902"
       id="path4"
       inkscape:connector-curvature="0" />
    <path
       style="opacity:0.5;fill:#000000;fill-opacity:1;stroke:none;stroke-width:2.33333302;stroke-linecap:round;stroke-linejoin:round;stroke-miterlimit:4;stroke-dasharray:none;stroke-opacity:1;enable-background:new"
       d="m 6.16474,20.488 5.35026,5.350216 v -4.183549 c 0,-0.48475 -0.681917,-1.166667 -1.166667,-1.166667 z m -1.6497396,1.649783 v 4.183549 c 0,0.48475 0.6819163,1.166668 1.1666663,1.166668 h 4.1835941 z"
       id="path6"
       inkscape:connector-curvature="0" />
  </g>
</svg>
