<?xml version="1.0" encoding="UTF-8" standalone="no"?>
<svg
   xmlns:dc="http://purl.org/dc/elements/1.1/"
   xmlns:cc="http://creativecommons.org/ns#"
   xmlns:rdf="http://www.w3.org/1999/02/22-rdf-syntax-ns#"
   xmlns:svg="http://www.w3.org/2000/svg"
   xmlns="http://www.w3.org/2000/svg"
   xmlns:sodipodi="http://sodipodi.sourceforge.net/DTD/sodipodi-0.dtd"
   xmlns:inkscape="http://www.inkscape.org/namespaces/inkscape"
   width="32"
   height="32"
   version="1.1"
   style="enable-background:new"
   id="svg8"
   sodipodi:docname="titlebutton-close-hover@2.svg"
   inkscape:version="0.92.4 5da689c313, 2019-01-14">
  <metadata
     id="metadata14">
    <rdf:RDF>
      <cc:Work
         rdf:about="">
        <dc:format>image/svg+xml</dc:format>
        <dc:type
           rdf:resource="http://purl.org/dc/dcmitype/StillImage" />
        <dc:title></dc:title>
      </cc:Work>
    </rdf:RDF>
  </metadata>
  <defs
     id="defs12" />
  <sodipodi:namedview
     pagecolor="#ffffff"
     bordercolor="#666666"
     borderopacity="1"
     objecttolerance="10"
     gridtolerance="10"
     guidetolerance="10"
     inkscape:pageopacity="0"
     inkscape:pageshadow="2"
     inkscape:window-width="1920"
     inkscape:window-height="1011"
     id="namedview10"
     showgrid="false"
     inkscape:zoom="25.75"
     inkscape:cx="8.3495146"
     inkscape:cy="12.628495"
     inkscape:window-x="0"
     inkscape:window-y="0"
     inkscape:window-maximized="1"
     inkscape:current-layer="svg8" />
  <g
     id="g817"
     transform="matrix(2,0,0,2,0,-32)">
    <path
       style="fill:#aa4400;fill-opacity:1;fill-rule:evenodd;stroke:none;stroke-width:1.14285707"
       d="M 8.0000702,32 C 12.418274,32 16,28.418286 16,24 16,19.581714 12.418274,16 8.0000702,16 3.5817358,16 0,19.581714 0,24 c 0,4.418286 3.5817358,8 8.0000702,8"
       id="path2"
       inkscape:connector-curvature="0" />
    <path
       style="fill:#d45500;fill-opacity:1;fill-rule:evenodd;stroke:none;stroke-width:1.11914313"
       d="m 8.0000702,31.428571 c 4.1026068,0 7.4284938,-3.18946 7.4284938,-7.123598 0,-3.934248 -3.325887,-7.123489 -7.4284938,-7.123489 -4.1027586,0 -7.42864878,3.189241 -7.42864878,7.123489 0,3.934138 3.32589018,7.123598 7.42864878,7.123598"
       id="path4"
       inkscape:connector-curvature="0" />
    <path
       inkscape:transform-center-y="-5.3389843"
       inkscape:transform-center-x="26.250006"
       style="opacity:0.5;fill:#000000;fill-opacity:1;stroke:none;stroke-width:2.2419734;stroke-linecap:round;stroke-linejoin:round;stroke-miterlimit:4;stroke-dasharray:none;stroke-opacity:1;enable-background:new"
       d="m 4.865345,20.802402 c -0.4391321,0.439091 -0.4391321,1.146098 0,1.5853 l 1.585314,1.5853 -1.585314,1.585298 c -0.4391321,0.439202 -0.4391321,1.146208 0,1.585299 0.4391319,0.439202 1.146182,0.439202 1.585314,0 L 8.0359738,25.5583 9.6212887,27.143599 c 0.4391323,0.439202 1.1461823,0.439202 1.5853143,0 0.439132,-0.439091 0.439132,-1.146097 0,-1.585299 l -1.5853143,-1.585298 1.5853143,-1.5853 c 0.439132,-0.439202 0.439132,-1.146209 0,-1.5853 -0.439132,-0.439201 -1.146182,-0.439201 -1.5853143,0 l -1.5853149,1.5853 -1.5853148,-1.5853 c -0.439132,-0.439201 -1.1461821,-0.439201 -1.585314,0 z"
       id="path4-3"
       inkscape:connector-curvature="0" />
  </g>
</svg>
