<?xml version="1.0" encoding="UTF-8" standalone="no"?>
<!-- Created with Inkscape (http://www.inkscape.org/) -->
<svg xmlns:rdf="http://www.w3.org/1999/02/22-rdf-syntax-ns#" xmlns="http://www.w3.org/2000/svg" height="32" width="32" version="1.1" xmlns:cc="http://creativecommons.org/ns#" xmlns:dc="http://purl.org/dc/elements/1.1/" viewBox="0 0 8.466667 8.4666669">
 <defs>
  <linearGradient id="linearGradient3856-6-9" x1="398.38" gradientUnits="userSpaceOnUse" x2="398.38" gradientTransform="matrix(1.1378,0,0,1.1378,-637.4,-1105.4)" y1="513.91" y2="503.7">
   <stop stop-color="#aaa" offset="0"/>
   <stop stop-color="#949494" offset="1"/>
  </linearGradient>
 </defs>
 <metadata>
  <rdf:RDF>
   <cc:Work rdf:about="">
    <dc:format>image/svg+xml</dc:format>
    <dc:type rdf:resource="http://purl.org/dc/dcmitype/StillImage"/>
    <dc:title/>
   </cc:Work>
  </rdf:RDF>
 </metadata>
 <g transform="translate(0 -288.53)">
  <g transform="matrix(2 0 0 2 .00085866 -296.99)">
   <g id="checkbox-unchecked" transform="matrix(.21704 0 0 .21704 -6.4337 351.74)">
    <g transform="translate(221.69,266.77)">
     <rect rx="1.0667" transform="rotate(90)" height="14.933" width="14.933" y="174.83" x="-536.22" stroke-width="1.0667" fill="#fff"/>
     <rect rx="3.4844" ry="3.4844" height="17.067" width="17.067" y="-537.28" x="-190.83" fill="url(#linearGradient3856-6-9)"/>
     <rect rx="3.0199" ry="3.0199" height="14.791" width="14.791" y="-536.15" x="-189.69" fill="#fff"/>
     <path opacity=".2" d="m-186.67-536.15c-1.673 0-3.0222 1.3492-3.0222 3.0222v1.1378c0-1.673 1.3492-3.0222 3.0222-3.0222h8.7467c1.673 0 3.0222 1.3492 3.0222 3.0222v-1.1378c0-1.673-1.3492-3.0222-3.0222-3.0222z"/>
    </g>
   </g>
  </g>
 </g>
</svg>
