/* XPM */
static char * close_prelight_xpm[] = {
"24 26 56 1",
" 	c None",
".	c #E6E5E6",
"+	c #E5E4E5",
"@	c #E4E3E4",
"#	c #E2D2D5",
"$	c #DD7F87",
"%	c #E04B56",
"&	c #E23D47",
"*	c #DF4C56",
"=	c #DC8087",
"-	c #DFA3A9",
";	c #E23E48",
">	c #F04D54",
",	c #F25056",
"'	c #E13E48",
")	c #DFA4A9",
"!	c #E8414A",
"~	c #E7414A",
"{	c #EB4E54",
"]	c #EF4F55",
"^	c #E23F49",
"/	c #E3D3D5",
"(	c #E3E2E3",
"_	c #DC7F86",
":	c #EC4E54",
"<	c #812B2E",
"[	c #8E2F33",
"}	c #E84D52",
"|	c #822B2E",
"1	c #F04E54",
"2	c #DE8189",
"3	c #DF4B55",
"4	c #79282B",
"5	c #8D2F32",
"6	c #DF4E56",
"7	c #E33E49",
"8	c #8C2E32",
"9	c #E74C52",
"0	c #E2E1E2",
"a	c #E64C52",
"b	c #E04C56",
"c	c #DB7F86",
"d	c #DD8289",
"e	c #E1D1D4",
"f	c #E24049",
"g	c #E1D2D4",
"h	c #E1E0E1",
"i	c #DDA2A7",
"j	c #DDA4A9",
"k	c #E0D1D2",
"l	c #DD8088",
"m	c #DF4D57",
"n	c #DD8189",
"o	c #E0D1D3",
"p	c #E0DFE0",
"q	c #DFDEDF",
"........................",
"........................",
"........................",
"........................",
"++++++++++++++++++++++++",
"++++++++++++++++++++++++",
"++++++++++++++++++++++++",
"@@@@@@@@#$%&&*=#@@@@@@@@",
"@@@@@@@-;>,,,,>')@@@@@@@",
"@@@@@@-!,,,,,,,,~)@@@@@@",
"@@@@@#;,,{],,]{,,^/@@@@@",
"(((((_>,:<[}}[|:,12(((((",
"(((((3,,][4554[],,6(((((",
"(((((7,,,}[4489,,,;(((((",
"00((0;,,,}[448a,,,^((00(",
"00000b,,][4554[],,600000",
"00000c>,:|[}}[|:,>d00000",
"00000e',,:],,]:,,fg00000",
"hhhhhhi~,,,,,,,,~jhhhhhh",
"hhhhhhhi^1,,,,>fjhhhhhhh",
"hhhhhhhhklm;;mnohhhhhhhh",
"hhhhhhhhhhhhhhhhhhhhhhhh",
"pppppppppppppppppppppppp",
"pppppppppppppppppppppppp",
"pppppppppppppppppppppppp",
"qqqqqqqqqqqqqqqqqqqqqqqq"};
