/* XPM */
static char * close_active_xpm[] = {
"24 26 44 1",
" 	c None",
".	c #E6E5E6",
"+	c #E5E4E5",
"@	c #E4E3E4",
"#	c #E2D2D5",
"$	c #DD7F87",
"%	c #E04B56",
"&	c #E23D47",
"*	c #DF4C56",
"=	c #DC8087",
"-	c #DFA3A9",
";	c #E23E48",
">	c #F04D54",
",	c #F25056",
"'	c #E13E48",
")	c #DFA4A9",
"!	c #E8414A",
"~	c #E7414A",
"{	c #E23F49",
"]	c #E3D3D5",
"^	c #E3E2E3",
"/	c #DC7F86",
"(	c #F04E54",
"_	c #DE8189",
":	c #DF4B55",
"<	c #DF4E56",
"[	c #E33E49",
"}	c #E2E1E2",
"|	c #E04C56",
"1	c #DB7F86",
"2	c #DD8289",
"3	c #E1D1D4",
"4	c #E24049",
"5	c #E1D2D4",
"6	c #E1E0E1",
"7	c #DDA2A7",
"8	c #DDA4A9",
"9	c #E0D1D2",
"0	c #DD8088",
"a	c #DF4D57",
"b	c #DD8189",
"c	c #E0D1D3",
"d	c #E0DFE0",
"e	c #DFDEDF",
"........................",
"........................",
"........................",
"........................",
"++++++++++++++++++++++++",
"++++++++++++++++++++++++",
"++++++++++++++++++++++++",
"@@@@@@@@#$%&&*=#@@@@@@@@",
"@@@@@@@-;>,,,,>')@@@@@@@",
"@@@@@@-!,,,,,,,,~)@@@@@@",
"@@@@@#;,,,,,,,,,,{]@@@@@",
"^^^^^/>,,,,,,,,,,(_^^^^^",
"^^^^^:,,,,,,,,,,,,<^^^^^",
"^^^^^[,,,,,,,,,,,,;^^^^^",
"}}^^};,,,,,,,,,,,,{^^}}^",
"}}}}}|,,,,,,,,,,,,<}}}}}",
"}}}}}1>,,,,,,,,,,>2}}}}}",
"}}}}}3',,,,,,,,,,45}}}}}",
"6666667~,,,,,,,,~8666666",
"66666667{(,,,,>486666666",
"6666666690a;;abc66666666",
"666666666666666666666666",
"dddddddddddddddddddddddd",
"dddddddddddddddddddddddd",
"dddddddddddddddddddddddd",
"eeeeeeeeeeeeeeeeeeeeeeee"};
