/* XPM */
static char * hide_active_xpm[] = {
"24 26 45 1",
" 	c None",
".	c #E6E5E6",
"+	c #E5E4E5",
"@	c #E4E3E4",
"#	c #E3DDD1",
"$	c #E1C074",
"%	c #E5B238",
"&	c #E9B025",
"*	c #E8B025",
"=	c #E4B338",
"-	c #E0C074",
";	c #E1CC9C",
">	c #E9B126",
",	c #F8C334",
"'	c #FAC536",
")	c #E8B126",
"!	c #E1CC9D",
"~	c #EEB729",
"{	c #E9B227",
"]	c #E3DDD2",
"^	c #E3E2E3",
"/	c #E0C073",
"(	c #F8C333",
"_	c #E0C076",
":	c #E4B236",
"<	c #E5B338",
"[	c #E2E1E2",
"}	c #E9B127",
"|	c #E5B237",
"1	c #DFBF73",
"2	c #F7C233",
"3	c #DFC076",
"4	c #E2DCD0",
"5	c #E9B228",
"6	c #E1DBD1",
"7	c #E1E0E1",
"8	c #DFCA9B",
"9	c #EEB628",
"0	c #DFCB9D",
"a	c #E0DBCF",
"b	c #DFBF75",
"c	c #DFBF76",
"d	c #E0DAD0",
"e	c #E0DFE0",
"f	c #DFDEDF",
"........................",
"........................",
"........................",
"........................",
"++++++++++++++++++++++++",
"++++++++++++++++++++++++",
"++++++++++++++++++++++++",
"@@@@@@@@#$%&*=-#@@@@@@@@",
"@@@@@@@;>,'''',)!@@@@@@@",
"@@@@@@;~''''''''~!@@@@@@",
"@@@@@#>''''''''''{]@@@@@",
"^^^^^/,''''''''''(_^^^^^",
"^^^^^:''''''''''''<^^^^^",
"^^^^^{'''''''''''')^^^^^",
"[^^[[>''''''''''''}[[^^[",
"[[[[[|''''''''''''<[[[[[",
"[[[[[1,''''''''''23[[[[[",
"[[[[[4)''''''''''56[[[[[",
"7777778~''''''''90777777",
"77777778}(''''2507777777",
"77777777ab<>><cd77777777",
"777777777777777777777777",
"eeeeeeeeeeeeeeeeeeeeeeee",
"eeeeeeeeeeeeeeeeeeeeeeee",
"eeeeeeeeeeeeeeeeeeeeeeee",
"ffffffffffffffffffffffff"};
