/* XPM */
static char * maximize_inactive_xpm[] = {
"24 26 26 1",
" 	c None",
".	c #E6E5E6",
"+	c #E5E4E5",
"@	c #E4E3E4",
"#	c #E0DFE0",
"$	c #CECDCE",
"%	c #C4C3C4",
"&	c #C0C0C0",
"*	c #C1C1C1",
"=	c #C3C3C3",
"-	c #CECECE",
";	c #D6D5D6",
">	c #C7C7C7",
",	c #C8C8C8",
"'	c #C2C2C2",
")	c #E3E2E3",
"!	c #CDCDCD",
"~	c #CFCECF",
"{	c #C4C4C4",
"]	c #E2E1E2",
"^	c #DFDEDF",
"/	c #E1E0E1",
"(	c #D4D3D4",
"_	c #D5D4D5",
":	c #DDDDDD",
"<	c #DEDDDE",
"........................",
"........................",
"........................",
"........................",
"++++++++++++++++++++++++",
"++++++++++++++++++++++++",
"++++++++++++++++++++++++",
"@@@@@@@@#$%&*=-#@@@@@@@@",
"@@@@@@@;*>,,,,>';@@@@@@@",
"@@@@@@;=,,,,,,,,=;@@@@@@",
"@@@@@#*,,,,,,,,,,'#@@@@@",
")))))!>,,,,,,,,,,>~)))))",
")))))=,,,,,,,,,,,,{)))))",
")))))*,,,,,,,,,,,,*)))))",
"]))]]*,,,,,,,,,,,,']]))]",
"]]]]]=,,,,,,,,,,,,{]]]]]",
"]]]]]!>,,,,,,,,,,>-]]]]]",
"]]]]]^',,,,,,,,,,'^]]]]]",
"//////(=,,,,,,,,'_//////",
"///////('>,,,,>'_///////",
"////////:${''{$<////////",
"////////////////////////",
"########################",
"########################",
"########################",
"^^^^^^^^^^^^^^^^^^^^^^^^"};
