/* XPM */
static char * maximize_pressed_xpm[] = {
"24 26 48 1",
" 	c None",
".	c #E6E5E6",
"+	c #E5E4E5",
"@	c #E4E3E4",
"#	c #D2E0D3",
"$	c #78D17E",
"%	c #3AC843",
"&	c #1CC327",
"*	c #3BC844",
"=	c #79D17E",
"-	c #9ED7A2",
";	c #1EC328",
">	c #13C11E",
",	c #9FD8A3",
"'	c #E3E2E3",
")	c #9DD7A1",
"!	c #14C11F",
"~	c #9ED8A2",
"{	c #D1E0D2",
"]	c #1EC228",
"^	c #D2DFD2",
"/	c #77D17D",
"(	c #11B01B",
"_	c #0A6810",
":	c #09600F",
"<	c #0D8114",
"[	c #39C742",
"}	c #3BC744",
"|	c #E2E1E2",
"1	c #1DC328",
"2	c #12B21C",
"3	c #0A6A10",
"4	c #3AC743",
"5	c #E1E0E1",
"6	c #77D07C",
"7	c #D0DED1",
"8	c #1DC227",
"9	c #1FC329",
"0	c #D0DDD1",
"a	c #9DD6A1",
"b	c #9FD6A3",
"c	c #E0DFE0",
"d	c #D0DDD0",
"e	c #78CF7D",
"f	c #1DC228",
"g	c #79D07E",
"h	c #CFDDD0",
"i	c #DFDEDF",
"........................",
"........................",
"........................",
"........................",
"++++++++++++++++++++++++",
"+++@@@@@@@@@@@@@@@@@@+++",
"+++@@@@@@@@@@@@@@@@@@+++",
"@@@@@@@@#$%&&*=#@@@@@@@@",
"@@@@@@@-;>>>>>>;,@@@@@@@",
"@@@''')!>>>>>>>>!~'''@@@",
"@@@''{;>>>>>>>>>>]^''@@@",
"'''''/>>>>(_::<>>>='''''",
"'''''[>>>(>(_::>>>}'''''",
"'''||1>>>_(>23:>>>]||'''",
"|''||]>>>:_(>23>>>]|||''",
"|||||4>>>::_(>(>>>4|||||",
"|||556>>><::_(>>>>=55|||",
"|||5578>>>>>>>>>>9055|||",
"555555a!>>>>>>>>!b555555",
"5555555a]>>>>>>9b5555555",
"555cccccde}ff}ghccccc555",
"555cccccccccccccccccc555",
"cccccccccccccccccccccccc",
"cccccccccccccccccccccccc",
"cccccccccccccccccccccccc",
"iiiiiiiiiiiiiiiiiiiiiiii"};
