/* XPM */
static char * maximize_active_xpm[] = {
"24 26 42 1",
" 	c None",
".	c #E6E5E6",
"+	c #E5E4E5",
"@	c #E4E3E4",
"#	c #D2E0D3",
"$	c #76D27C",
"%	c #39D245",
"&	c #28D436",
"*	c #28D435",
"=	c #76D27B",
"-	c #9DD7A1",
";	c #2AD436",
">	c #36E746",
",	c #39EA49",
"'	c #29D436",
")	c #9ED8A2",
"!	c #2CDB3A",
"~	c #2BDB3A",
"{	c #2AD437",
"]	c #D3E0D3",
"^	c #E3E2E3",
"/	c #75D27B",
"(	c #78D27D",
"_	c #38D244",
":	c #3BD245",
"<	c #E2E1E2",
"[	c #39D345",
"}	c #75D17A",
"|	c #78D37D",
"1	c #D1DFD2",
"2	c #2BD437",
"3	c #D1DED2",
"4	c #E1E0E1",
"5	c #9CD6A0",
"6	c #2BDB39",
"7	c #9ED6A2",
"8	c #D0DED0",
"9	c #77D17C",
"0	c #3BD246",
"a	c #D0DDD1",
"b	c #E0DFE0",
"c	c #DFDEDF",
"........................",
"........................",
"........................",
"........................",
"++++++++++++++++++++++++",
"++++++++++++++++++++++++",
"++++++++++++++++++++++++",
"@@@@@@@@#$%&*%=#@@@@@@@@",
"@@@@@@@-;>,,,,>')@@@@@@@",
"@@@@@@-!,,,,,,,,~)@@@@@@",
"@@@@@#;,,,,,,,,,,{]@@@@@",
"^^^^^/>,,,,,,,,,,>(^^^^^",
"^^^^^_,,,,,,,,,,,,:^^^^^",
"^^^^^{,,,,,,,,,,,,'^^^^^",
"<^^<<;,,,,,,,,,,,,{^<<^^",
"<<<<<[,,,,,,,,,,,,:<<<<<",
"<<<<<}>,,,,,,,,,,>|<<<<<",
"<<<<<1',,,,,,,,,,23<<<<<",
"4444445~,,,,,,,,67444444",
"44444445{>,,,,>274444444",
"44444444890''0(a44444444",
"444444444444444444444444",
"bbbbbbbbbbbbbbbbbbbbbbbb",
"bbbbbbbbbbbbbbbbbbbbbbbb",
"bbbbbbbbbbbbbbbbbbbbbbbb",
"cccccccccccccccccccccccc"};
