/* XPM */
static char * maximize_prelight_xpm[] = {
"24 26 49 1",
" 	c None",
".	c #E6E5E6",
"+	c #E5E4E5",
"@	c #E4E3E4",
"#	c #D2E0D3",
"$	c #76D27C",
"%	c #39D245",
"&	c #28D436",
"*	c #28D435",
"=	c #76D27B",
"-	c #9DD7A1",
";	c #2AD436",
">	c #36E746",
",	c #39EA49",
"'	c #29D436",
")	c #9ED8A2",
"!	c #2CDB3A",
"~	c #2BDB3A",
"{	c #2AD437",
"]	c #D3E0D3",
"^	c #E3E2E3",
"/	c #75D27B",
"(	c #34D643",
"_	c #1F7F28",
":	c #1C7524",
"<	c #269D31",
"[	c #78D27D",
"}	c #38D244",
"|	c #3BD245",
"1	c #34D542",
"2	c #35D843",
"3	c #1F8028",
"4	c #E2E1E2",
"5	c #39D345",
"6	c #75D17A",
"7	c #78D37D",
"8	c #D1DFD2",
"9	c #2BD437",
"0	c #D1DED2",
"a	c #E1E0E1",
"b	c #9CD6A0",
"c	c #2BDB39",
"d	c #9ED6A2",
"e	c #D0DED0",
"f	c #77D17C",
"g	c #3BD246",
"h	c #D0DDD1",
"i	c #E0DFE0",
"j	c #DFDEDF",
"........................",
"........................",
"........................",
"........................",
"++++++++++++++++++++++++",
"++++++++++++++++++++++++",
"++++++++++++++++++++++++",
"@@@@@@@@#$%&*%=#@@@@@@@@",
"@@@@@@@-;>,,,,>')@@@@@@@",
"@@@@@@-!,,,,,,,,~)@@@@@@",
"@@@@@#;,,,,,,,,,,{]@@@@@",
"^^^^^/>,,,(_::<,,>[^^^^^",
"^^^^^},,,(,(_::,,,|^^^^^",
"^^^^^{,,,_1,23:,,,'^^^^^",
"4^^44;,,,:_1,23,,,{^44^^",
"444445,,,::_(,(,,,|44444",
"444446>,,<::_(,,,>744444",
"444448',,,,,,,,,,9044444",
"aaaaaab~,,,,,,,,cdaaaaaa",
"aaaaaaab{>,,,,>9daaaaaaa",
"aaaaaaaaefg''g[haaaaaaaa",
"aaaaaaaaaaaaaaaaaaaaaaaa",
"iiiiiiiiiiiiiiiiiiiiiiii",
"iiiiiiiiiiiiiiiiiiiiiiii",
"iiiiiiiiiiiiiiiiiiiiiiii",
"jjjjjjjjjjjjjjjjjjjjjjjj"};
