/* XPM */
static char * menu_prelight_xpm[] = {
"24 26 14 1",
" 	c None",
".	c #E6E5E6",
"+	c #E5E4E5",
"@	c #E4E3E4",
"#	c #E3E2E3",
"$	c #5A5A5A",
"%	c #E2E1E2",
"&	c #6A6A6A",
"*	c #7B7B7B",
"=	c #7B7A7B",
"-	c #A8A8A8",
";	c #E1E0E1",
">	c #E0DFE0",
",	c #DFDEDF",
"........................",
"........................",
"........................",
"........................",
"++++++++++++++++++++++++",
"++++++++++++++++++++++++",
"++++++++++++++++++++++++",
"@@@@@@@@@@@@@@@@@@@@@@@@",
"@@@@@@@@@@@@@@@@@@@@@@@@",
"@@@@@@@@@@@@@@@@@@@@@@@@",
"@@@@@@@@@@@@@@@@@@@@@@@@",
"########################",
"########################",
"########$$$$$$$$########",
"#%#%#%#%#&&&&&&%#%#%#%#%",
"%%%%%%%%%%**=*%%%%%%%%%%",
"%%%%%%%%%%%--%%%%%%%%%%%",
"%%%%%%%%%%%%%%%%%%%%%%%%",
";;;;;;;;;;;;;;;;;;;;;;;;",
";;;;;;;;;;;;;;;;;;;;;;;;",
";;;;;;;;;;;;;;;;;;;;;;;;",
";;;;;;;;;;;;;;;;;;;;;;;;",
">>>>>>>>>>>>>>>>>>>>>>>>",
">>>>>>>>>>>>>>>>>>>>>>>>",
">>>>>>>>>>>>>>>>>>>>>>>>",
",,,,,,,,,,,,,,,,,,,,,,,,"};
