/* XPM */
static char * shade_pressed_xpm[] = {
"24 26 35 1",
" 	c None",
".	c #E6E5E6",
"+	c #E5E4E5",
"@	c #E4E3E4",
"#	c #5A5A5A",
"$	c #E3E2E3",
"%	c #646363",
"&	c #636364",
"*	c #646464",
"=	c #6C6D6D",
"-	c #6D6D6D",
";	c #6E6E6D",
">	c #6E6D6E",
",	c #6E6E6E",
"'	c #777776",
")	c #767777",
"!	c #777777",
"~	c #787777",
"{	c #787878",
"]	c #E2E1E2",
"^	c #8B8B8B",
"/	c #8B8C8B",
"(	c #8C8B8C",
"_	c #8C8C8C",
":	c #8D8C8C",
"<	c #959595",
"[	c #969595",
"}	c #959696",
"|	c #969695",
"1	c #969596",
"2	c #969696",
"3	c #969796",
"4	c #E1E0E1",
"5	c #E0DFE0",
"6	c #DFDEDF",
"........................",
"........................",
"........................",
"........................",
"++++++++++++++++++++++++",
"++++++++++++++++++++++++",
"++++++++++++++++++++++++",
"@@@@@@@@@@@@@@@@@@@@@@@@",
"@@@@@@@@@@@@@@@@@@@@@@@@",
"@@@@@@@@@@@@@@@@@@@@@@@@",
"@@@@@@@@@@@##@@@@@@@@@@@",
"$$$$$$$$$$%&&*$$$$$$$$$$",
"$$$$$$$$$=-;>>,$$$$$$$$$",
"$$$$$$$$')!~{{{{$$$$$$$$",
"$]$]$]$]$]$]$]$]$]$]$]$]",
"]]]]]]]]^^/^((_:]]]]]]]]",
"]]]]]]]]<<[}|123]]]]]]]]",
"]]]]]]]]]]]]]]]]]]]]]]]]",
"444444444444444444444444",
"444444444444444444444444",
"444444444444444444444444",
"444444444444444444444444",
"555555555555555555555555",
"555555555555555555555555",
"555555555555555555555555",
"666666666666666666666666"};
