/* XPM */
static char * stick_inactive_xpm[] = {
"24 26 33 1",
" 	c None",
".	c #E6E5E6",
"+	c #E5E4E5",
"@	c #E4E3E4",
"#	c #E3E2E3",
"$	c #9F9F9E",
"%	c #666767",
"&	c #676766",
"*	c #A6A6A5",
"=	c #666666",
"-	c #7C7C7B",
";	c #727272",
">	c #717272",
",	c #727172",
"'	c #7C7B7C",
")	c #E2E1E2",
"!	c #868686",
"~	c #7D7D7D",
"{	c #7D7E7D",
"]	c #7E7D7D",
"^	c #878686",
"/	c #BAB9B9",
"(	c #898889",
"_	c #898989",
":	c #888988",
"<	c #BABAB9",
"[	c #C1C1C0",
"}	c #9B9B9B",
"|	c #9B9C9B",
"1	c #C0C0C0",
"2	c #E1E0E1",
"3	c #E0DFE0",
"4	c #DFDEDF",
"........................",
"........................",
"........................",
"........................",
"++++++++++++++++++++++++",
"++++++++++++++++++++++++",
"++++++++++++++++++++++++",
"@@@@@@@@@@@@@@@@@@@@@@@@",
"@@@@@@@@@@@@@@@@@@@@@@@@",
"@@@@@@@@@@@@@@@@@@@@@@@@",
"@@@@@@@@@@@@@@@@@@@@@@@@",
"##########$%&$##########",
"#########*====*#########",
"#########-;;>,'#########",
"#)#)#)##)!~{]~^#))#)#)#)",
")))))))))/(__:<)))))))))",
"))))))))))[}|1))))))))))",
"))))))))))))))))))))))))",
"222222222222222222222222",
"222222222222222222222222",
"222222222222222222222222",
"222222222222222222222222",
"333333333333333333333333",
"333333333333333333333333",
"333333333333333333333333",
"444444444444444444444444"};
