/* XPM */
static char * title_3_active_xpm[] = {
"26 26 9 1",
" 	c None",
".	c #E6E5E6",
"+	c #E5E4E5",
"@	c #E4E3E4",
"#	c #E3E2E3",
"$	c #E2E1E2",
"%	c #E1E0E1",
"&	c #E0DFE0",
"*	c #DFDEDF",
"..........................",
"..........................",
"..........................",
"..........................",
"++++++++++++++++++++++++++",
"++++++++++++++++++++++++++",
"++++++++++++++++++++++++++",
"@@@@@@@@@@@@@@@@@@@@@@@@@@",
"@@@@@@@@@@@@@@@@@@@@@@@@@@",
"@@@@@@@@@@@@@@@@@@@@@@@@@@",
"@@@@@@@@@@@@@@@@@@@@@@@@@@",
"##########################",
"##########################",
"##########################",
"$#$#$#$#$#$#$#$#$#$#$#$#$#",
"$$$$$$$$$$$$$$$$$$$$$$$$$$",
"$$$$$$$$$$$$$$$$$$$$$$$$$$",
"$$$$$$$$$$$$$$$$$$$$$$$$$$",
"%%%%%%%%%%%%%%%%%%%%%%%%%%",
"%%%%%%%%%%%%%%%%%%%%%%%%%%",
"%%%%%%%%%%%%%%%%%%%%%%%%%%",
"%%%%%%%%%%%%%%%%%%%%%%%%%%",
"&&&&&&&&&&&&&&&&&&&&&&&&&&",
"&&&&&&&&&&&&&&&&&&&&&&&&&&",
"&&&&&&&&&&&&&&&&&&&&&&&&&&",
"**************************"};
