<?xml version="1.0" encoding="UTF-8" standalone="no"?>
<svg
   xmlns:dc="http://purl.org/dc/elements/1.1/"
   xmlns:cc="http://creativecommons.org/ns#"
   xmlns:rdf="http://www.w3.org/1999/02/22-rdf-syntax-ns#"
   xmlns:svg="http://www.w3.org/2000/svg"
   xmlns="http://www.w3.org/2000/svg"
   xmlns:sodipodi="http://sodipodi.sourceforge.net/DTD/sodipodi-0.dtd"
   xmlns:inkscape="http://www.inkscape.org/namespaces/inkscape"
   width="32"
   height="32"
   version="1.1"
   style="enable-background:new"
   id="svg8"
   sodipodi:docname="titlebutton-maximize-hover@2.svg"
   inkscape:version="0.92.4 5da689c313, 2019-01-14">
  <metadata
     id="metadata14">
    <rdf:RDF>
      <cc:Work
         rdf:about="">
        <dc:format>image/svg+xml</dc:format>
        <dc:type
           rdf:resource="http://purl.org/dc/dcmitype/StillImage" />
        <dc:title></dc:title>
      </cc:Work>
    </rdf:RDF>
  </metadata>
  <defs
     id="defs12" />
  <sodipodi:namedview
     pagecolor="#ffffff"
     bordercolor="#666666"
     borderopacity="1"
     objecttolerance="10"
     gridtolerance="10"
     guidetolerance="10"
     inkscape:pageopacity="0"
     inkscape:pageshadow="2"
     inkscape:window-width="1920"
     inkscape:window-height="1011"
     id="namedview10"
     showgrid="true"
     inkscape:zoom="18.141709"
     inkscape:cx="4.3069428"
     inkscape:cy="7.9999999"
     inkscape:window-x="0"
     inkscape:window-y="0"
     inkscape:window-maximized="1"
     inkscape:current-layer="svg8">
    <inkscape:grid
       type="xygrid"
       id="grid1052" />
  </sodipodi:namedview>
  <g
     id="g13"
     transform="scale(2)">
    <path
       style="fill:#aeaeae;fill-opacity:1;fill-rule:evenodd;stroke:none;stroke-width:1.14285707"
       d="M 8.0000702,16 C 12.418274,16 16,12.418286 16,8 16,3.5817144 12.418274,2e-7 8.0000702,2e-7 3.5817358,2e-7 0,3.5817144 0,8 c 0,4.418286 3.5817358,8 8.0000702,8"
       id="path2"
       inkscape:connector-curvature="0" />
    <path
       style="opacity:1;fill:#c0c0c0;fill-opacity:1;fill-rule:evenodd;stroke:none;stroke-width:1.11112607"
       d="m 8.0000702,15.428571 c 4.1026068,0 7.4284938,-3.143927 7.4284938,-7.0219023 0,-3.8780832 -3.325887,-7.0217948 -7.4284938,-7.0217948 -4.1027583,0 -7.42864855,3.1437116 -7.42864855,7.0217948 0,3.8779753 3.32589025,7.0219023 7.42864855,7.0219023"
       id="path4"
       inkscape:connector-curvature="0" />
    <path
       style="opacity:0.5;fill:#000000;fill-opacity:1;stroke:none;stroke-width:2.33333302;stroke-linecap:round;stroke-linejoin:round;stroke-miterlimit:4;stroke-dasharray:none;stroke-opacity:1;enable-background:new"
       d="M 6.16474,4.4879998 11.515,9.8382161 V 5.6546665 c 0,-0.48475 -0.681917,-1.1666667 -1.166667,-1.1666667 z M 4.5150004,6.1377831 v 4.1835489 c 0,0.48475 0.6819163,1.166668 1.1666663,1.166668 h 4.1835941 z"
       id="path6"
       inkscape:connector-curvature="0" />
  </g>
</svg>
