<?xml version="1.0" encoding="UTF-8" standalone="no"?>
<svg
   xmlns:dc="http://purl.org/dc/elements/1.1/"
   xmlns:cc="http://creativecommons.org/ns#"
   xmlns:rdf="http://www.w3.org/1999/02/22-rdf-syntax-ns#"
   xmlns:svg="http://www.w3.org/2000/svg"
   xmlns="http://www.w3.org/2000/svg"
   xmlns:sodipodi="http://sodipodi.sourceforge.net/DTD/sodipodi-0.dtd"
   xmlns:inkscape="http://www.inkscape.org/namespaces/inkscape"
   width="32"
   height="32"
   version="1.1"
   style="enable-background:new"
   id="svg8"
   sodipodi:docname="titlebutton-close-active@2.svg"
   inkscape:version="0.92.4 5da689c313, 2019-01-14">
  <metadata
     id="metadata14">
    <rdf:RDF>
      <cc:Work
         rdf:about="">
        <dc:format>image/svg+xml</dc:format>
        <dc:type
           rdf:resource="http://purl.org/dc/dcmitype/StillImage" />
        <dc:title></dc:title>
      </cc:Work>
    </rdf:RDF>
  </metadata>
  <defs
     id="defs12" />
  <sodipodi:namedview
     pagecolor="#ffffff"
     bordercolor="#666666"
     borderopacity="1"
     objecttolerance="10"
     gridtolerance="10"
     guidetolerance="10"
     inkscape:pageopacity="0"
     inkscape:pageshadow="2"
     inkscape:window-width="1920"
     inkscape:window-height="1011"
     id="namedview10"
     showgrid="true"
     inkscape:zoom="25.75"
     inkscape:cx="8"
     inkscape:cy="7.9999999"
     inkscape:window-x="0"
     inkscape:window-y="0"
     inkscape:window-maximized="1"
     inkscape:current-layer="svg8">
    <inkscape:grid
       type="xygrid"
       id="grid946" />
  </sodipodi:namedview>
  <g
     id="g13"
     transform="scale(2)">
    <path
       style="fill:#de5151;fill-opacity:1;fill-rule:evenodd;stroke:none;stroke-width:1.14285707"
       d="M 8.0000702,16 C 12.418274,16 16,12.418286 16,8 16,3.5817144 12.418274,2e-7 8.0000702,2e-7 3.5817358,2e-7 0,3.5817144 0,8 c 0,4.418286 3.5817358,8 8.0000702,8"
       id="path2"
       inkscape:connector-curvature="0" />
    <path
       style="fill:#ef7c53;fill-opacity:1;fill-rule:evenodd;stroke:none;stroke-width:1.11914313"
       d="m 8.0000702,15.428571 c 4.1026068,0 7.4284938,-3.18946 7.4284938,-7.1235978 0,-3.9342482 -3.325887,-7.123489 -7.4284938,-7.123489 -4.1027586,0 -7.42864878,3.1892408 -7.42864878,7.123489 0,3.9341378 3.32589018,7.1235978 7.42864878,7.1235978"
       id="path4"
       inkscape:connector-curvature="0" />
    <path
       inkscape:transform-center-y="-5.3389843"
       inkscape:transform-center-x="26.250006"
       style="opacity:0.5;fill:#000000;fill-opacity:1;stroke:none;stroke-width:2.2419734;stroke-linecap:round;stroke-linejoin:round;stroke-miterlimit:4;stroke-dasharray:none;stroke-opacity:1;enable-background:new"
       d="m 4.865345,4.8024021 c -0.4391321,0.4390909 -0.4391321,1.1460973 0,1.5852998 L 6.450659,7.9730015 4.865345,9.5582998 c -0.4391321,0.4392022 -0.4391321,1.1462082 0,1.5852992 0.4391319,0.439202 1.146182,0.439202 1.585314,0 L 8.0359738,9.5582998 9.6212887,11.143599 c 0.4391323,0.439202 1.1461823,0.439202 1.5853143,0 0.439132,-0.439091 0.439132,-1.146097 0,-1.5852992 L 9.6212887,7.9730016 11.206603,6.3877019 c 0.439132,-0.4392025 0.439132,-1.1462089 0,-1.5852998 -0.439132,-0.4392019 -1.146182,-0.4392019 -1.5853143,0 L 8.0359738,6.3877019 6.450659,4.8024021 c -0.439132,-0.4392019 -1.1461821,-0.4392019 -1.585314,0 z"
       id="path4-3"
       inkscape:connector-curvature="0" />
  </g>
</svg>
